<svg xmlns="http://www.w3.org/2000/svg" width="170" height="33.459" viewBox="0 0 170 33.459">
  <g id="Group_811" data-name="Group 811" transform="translate(-230 -24)">
    <g id="Group_32" data-name="Group 32" transform="translate(229.952 14.918)">
      <g id="Group_23" data-name="Group 23" transform="translate(50.844 9.307)" style="isolation: isolate">
        <g id="Group_19" data-name="Group 19" transform="translate(0 0.834)" style="isolation: isolate">
          <path id="Path_41" data-name="Path 41" d="M150.93,30.6a18.049,18.049,0,0,1-5.951,1.063,9.96,9.96,0,0,1-7.244-2.558,9.965,9.965,0,0,1-2.7-7.215c.029-5.778,4-10,10.492-10a11.978,11.978,0,0,1,4.829.891l-.6,2.041a10.039,10.039,0,0,0-4.283-.834c-4.714,0-7.79,2.932-7.79,7.79,0,4.916,2.961,7.819,7.474,7.819a8.149,8.149,0,0,0,3.335-.518V23.3h-3.938V21.287h6.382Z" transform="translate(-135.033 -11.887)" fill="#544741"/>
        </g>
        <g id="Group_20" data-name="Group 20" transform="translate(18.769)" style="isolation: isolate">
          <path id="Path_42" data-name="Path 42" d="M198.383,33.218c0,5.146-3.565,7.388-6.928,7.388-3.766,0-6.669-2.759-6.669-7.158,0-4.657,3.047-7.388,6.9-7.388C195.681,26.06,198.383,28.964,198.383,33.218Zm-11.039.144c0,3.047,1.753,5.347,4.226,5.347,2.414,0,4.225-2.271,4.225-5.4,0-2.357-1.178-5.347-4.168-5.347S187.344,30.717,187.344,33.361Z" transform="translate(-184.786 -19.88)" fill="#544741"/>
          <path id="Path_43" data-name="Path 43" d="M229.286,9.677h2.53v20.41h-2.53Z" transform="translate(-212.499 -9.677)" fill="#544741"/>
          <path id="Path_44" data-name="Path 44" d="M257.623,9.677V26.493c0,1.236.029,2.644.115,3.593h-2.271l-.115-2.415H255.3a5.146,5.146,0,0,1-4.743,2.731c-3.363,0-5.95-2.846-5.95-7.071-.029-4.628,2.846-7.474,6.238-7.474a4.652,4.652,0,0,1,4.2,2.127h.057V9.677Zm-2.53,12.159a4.457,4.457,0,0,0-.115-1.063,3.72,3.72,0,0,0-3.651-2.932c-2.616,0-4.168,2.3-4.168,5.376,0,2.817,1.38,5.145,4.11,5.145a3.8,3.8,0,0,0,3.708-3.018,4.389,4.389,0,0,0,.115-1.092Z" transform="translate(-222.037 -9.677)" fill="#544741"/>
        </g>
        <g id="Group_21" data-name="Group 21" transform="translate(58.637 1.035)" style="isolation: isolate">
          <path id="Path_45" data-name="Path 45" d="M290.472,12.42h10.435v2.1h-7.934v6.439h7.33v2.07h-7.33v8.768h-2.5Z" transform="translate(-290.472 -12.42)" fill="#544741"/>
        </g>
        <g id="Group_22" data-name="Group 22" transform="translate(71.487)" style="isolation: isolate">
          <path id="Path_46" data-name="Path 46" d="M327.668,13.925a1.567,1.567,0,0,1-3.134,0,1.542,1.542,0,0,1,1.581-1.581A1.5,1.5,0,0,1,327.668,13.925ZM324.85,31.748V17.834h2.529V31.748Z" transform="translate(-324.534 -11.338)" fill="#544741"/>
          <path id="Path_47" data-name="Path 47" d="M343.012,30.142c0-1.438-.029-2.616-.115-3.766h2.243l.144,2.3h.057a5.117,5.117,0,0,1,4.6-2.616c1.926,0,4.916,1.15,4.916,5.922v8.307h-2.529v-8.02c0-2.242-.834-4.11-3.22-4.11a3.594,3.594,0,0,0-3.392,2.587,3.646,3.646,0,0,0-.172,1.178v8.365h-2.529Z" transform="translate(-335.97 -19.88)" fill="#544741"/>
          <path id="Path_48" data-name="Path 48" d="M393.75,39.82a9.315,9.315,0,0,1-4,.805c-4.2,0-6.928-2.846-6.928-7.1a7.069,7.069,0,0,1,7.474-7.388,8.461,8.461,0,0,1,3.507.718l-.575,1.955a5.862,5.862,0,0,0-2.932-.661c-3.191,0-4.916,2.357-4.916,5.26,0,3.22,2.07,5.2,4.829,5.2a7.181,7.181,0,0,0,3.1-.69Z" transform="translate(-360.836 -19.928)" fill="#544741"/>
          <path id="Path_49" data-name="Path 49" d="M419.631,9.677h2.53v8.681h.057a4.693,4.693,0,0,1,1.811-1.782,5.207,5.207,0,0,1,2.587-.719c1.869,0,4.858,1.15,4.858,5.951v8.279h-2.53V22.1c0-2.242-.834-4.139-3.219-4.139a3.634,3.634,0,0,0-3.392,2.53,3.061,3.061,0,0,0-.172,1.207v8.394h-2.53Z" transform="translate(-383.757 -9.677)" fill="#544741"/>
        </g>
      </g>
      <g id="Group_29" data-name="Group 29" transform="translate(50.741 31.795)" style="isolation: isolate">
        <g id="Group_24" data-name="Group 24" style="isolation: isolate">
          <path id="Path_50" data-name="Path 50" d="M142.364,79.155a6.429,6.429,0,0,1-2.649.476,4.686,4.686,0,0,1-4.955-5.073A4.991,4.991,0,0,1,140,69.29a5.375,5.375,0,0,1,2.381.447l-.312,1.056a4.718,4.718,0,0,0-2.024-.416c-2.351,0-3.913,1.5-3.913,4.136,0,2.455,1.413,4.032,3.853,4.032a5.181,5.181,0,0,0,2.113-.417Z" transform="translate(-134.76 -69.29)" fill="#544741"/>
        </g>
        <g id="Group_25" data-name="Group 25" transform="translate(9.226 0.164)" style="isolation: isolate">
          <path id="Path_51" data-name="Path 51" d="M159.218,69.725h1.294v8.943H164.8v1.086h-5.58Z" transform="translate(-159.218 -69.725)" fill="#544741"/>
        </g>
        <g id="Group_26" data-name="Group 26" transform="translate(15.074)" style="isolation: isolate">
          <path id="Path_52" data-name="Path 52" d="M183.886,74.364c0,3.452-2.1,5.282-4.657,5.282-2.649,0-4.508-2.053-4.508-5.088,0-3.185,1.979-5.268,4.657-5.268C182.115,69.29,183.886,71.388,183.886,74.364Zm-7.782.164c0,2.142,1.161,4.062,3.2,4.062s3.214-1.89,3.214-4.167c0-1.994-1.042-4.077-3.2-4.077S176.1,72.326,176.1,74.528Z" transform="translate(-174.72 -69.29)" fill="#544741"/>
          <path id="Path_53" data-name="Path 53" d="M204.748,69.725v5.937c0,2.246,1,3.2,2.336,3.2,1.488,0,2.44-.982,2.44-3.2V69.725h1.309v5.847c0,3.081-1.622,4.345-3.794,4.345-2.053,0-3.6-1.175-3.6-4.285V69.725Z" transform="translate(-192.605 -69.561)" fill="#544741"/>
          <path id="Path_54" data-name="Path 54" d="M229,69.736a18.631,18.631,0,0,1,2.753-.208,5.741,5.741,0,0,1,4.062,1.25,4.618,4.618,0,0,1,1.413,3.6,5.3,5.3,0,0,1-1.443,3.9,6.177,6.177,0,0,1-4.434,1.443A20.835,20.835,0,0,1,229,79.6ZM230.3,78.6a8.167,8.167,0,0,0,1.309.074c2.767,0,4.271-1.548,4.271-4.256.015-2.366-1.324-3.869-4.062-3.869a7.361,7.361,0,0,0-1.518.134Z" transform="translate(-208.525 -69.438)" fill="#544741"/>
          <path id="Path_55" data-name="Path 55" d="M262.625,77.906a4.593,4.593,0,0,0,2.321.654c1.324,0,2.1-.7,2.1-1.711,0-.938-.536-1.473-1.89-1.994-1.637-.581-2.649-1.429-2.649-2.842,0-1.562,1.294-2.723,3.243-2.723a4.556,4.556,0,0,1,2.217.492l-.357,1.056a3.992,3.992,0,0,0-1.9-.476c-1.369,0-1.89.818-1.89,1.5,0,.938.61,1.4,1.994,1.935,1.7.654,2.56,1.473,2.56,2.946,0,1.548-1.146,2.887-3.512,2.887a5.189,5.189,0,0,1-2.559-.639Z" transform="translate(-229.26 -69.29)" fill="#544741"/>
          <path id="Path_56" data-name="Path 56" d="M290.676,74.364c0,3.452-2.1,5.282-4.657,5.282-2.649,0-4.508-2.053-4.508-5.088,0-3.185,1.979-5.268,4.657-5.268C288.9,69.29,290.676,71.388,290.676,74.364Zm-7.782.164c0,2.142,1.161,4.062,3.2,4.062,2.054,0,3.214-1.89,3.214-4.167,0-1.994-1.042-4.077-3.2-4.077S282.894,72.326,282.894,74.528Z" transform="translate(-241.225 -69.29)" fill="#544741"/>
        </g>
        <g id="Group_27" data-name="Group 27" transform="translate(66.204 0.164)" style="isolation: isolate">
          <path id="Path_57" data-name="Path 57" d="M310.258,69.725h1.294v8.943h4.285v1.086h-5.58Z" transform="translate(-310.258 -69.725)" fill="#544741"/>
        </g>
        <g id="Group_28" data-name="Group 28" transform="translate(72.678)" style="isolation: isolate">
          <path id="Path_58" data-name="Path 58" d="M328.727,69.725v5.937c0,2.246,1,3.2,2.336,3.2,1.488,0,2.44-.982,2.44-3.2V69.725h1.309v5.847c0,3.081-1.621,4.345-3.794,4.345-2.053,0-3.6-1.175-3.6-4.285V69.725Z" transform="translate(-327.418 -69.561)" fill="#544741"/>
          <path id="Path_59" data-name="Path 59" d="M352.993,70.826h-3.05v-1.1h7.425v1.1H354.3v8.928h-1.31Z" transform="translate(-341.446 -69.561)" fill="#544741"/>
          <path id="Path_60" data-name="Path 60" d="M373.883,69.725V79.753h-1.295V69.725Z" transform="translate(-355.548 -69.561)" fill="#544741"/>
          <path id="Path_61" data-name="Path 61" d="M389.6,74.364c0,3.452-2.1,5.282-4.657,5.282-2.649,0-4.509-2.053-4.509-5.088,0-3.185,1.979-5.268,4.658-5.268C387.833,69.29,389.6,71.388,389.6,74.364Zm-7.782.164c0,2.142,1.161,4.062,3.2,4.062s3.214-1.89,3.214-4.167c0-1.994-1.042-4.077-3.2-4.077S381.822,72.326,381.822,74.528Z" transform="translate(-360.437 -69.29)" fill="#544741"/>
          <path id="Path_62" data-name="Path 62" d="M409.2,79.753V69.725h1.414l3.214,5.074a28.4,28.4,0,0,1,1.8,3.259l.03-.015c-.119-1.339-.148-2.56-.148-4.121v-4.2h1.22V79.753h-1.309l-3.184-5.089a31.855,31.855,0,0,1-1.875-3.347l-.044.015c.075,1.264.1,2.47.1,4.136v4.285Z" transform="translate(-378.347 -69.561)" fill="#544741"/>
          <path id="Path_63" data-name="Path 63" d="M434.141,77.906a4.593,4.593,0,0,0,2.321.654c1.324,0,2.1-.7,2.1-1.711,0-.938-.535-1.473-1.89-1.994-1.636-.581-2.649-1.429-2.649-2.842,0-1.562,1.295-2.723,3.244-2.723a4.558,4.558,0,0,1,2.217.492l-.357,1.056a4,4,0,0,0-1.9-.476c-1.369,0-1.89.818-1.89,1.5,0,.938.61,1.4,1.994,1.935,1.7.654,2.559,1.473,2.559,2.946,0,1.548-1.146,2.887-3.512,2.887a5.189,5.189,0,0,1-2.559-.639Z" transform="translate(-393.678 -69.29)" fill="#544741"/>
        </g>
      </g>
    </g>
    <g id="Group_810" data-name="Group 810">
      <path id="Path_1317" data-name="Path 1317" d="M1.128,42.541a1.084,1.084,0,0,1-.41-.081,1.068,1.068,0,0,1-.586-.579,1.08,1.08,0,0,1,.325-1.263c.257-.212.517-.4.783-.583.6-.412,1.215-.764,1.809-1.1q.274-.157.549-.316A119.7,119.7,0,0,0,16.55,29.68l-.016-.021.406-.3L17,29.3l.461-.387.022.026a21.51,21.51,0,0,0,1.986-1.767c1.622-1.482,3.531-3.2,5.548-4.9.9-.753,1.821-1.505,2.746-2.234a8.622,8.622,0,0,0,2.1-2.051l-1.306-.267a.6.6,0,0,1-.593-.63,1.838,1.838,0,0,1,.709-1.235,3.6,3.6,0,0,0,.252-.258,3.551,3.551,0,0,0,.671-1.63c.071-.3.143-.6.243-.9a6.186,6.186,0,0,1,5.55-3.98,8.569,8.569,0,0,1,6.318,2.592,14.769,14.769,0,0,1,3.471,5.79c1.494,4.19,1.558,8.3.18,11.571-1.427,3.387-4.313,5.835-6.669,7.59-2.4,1.788-5.626,3.88-9.292,4.18a21.933,21.933,0,0,1-6.445-.745c-.9-.2-1.838-.4-2.752-.544A31.352,31.352,0,0,0,6.459,40.77c-1,.287-2.053.627-3.309,1.069-.451.16-.9.337-1.347.515l-.273.108A1.026,1.026,0,0,1,1.128,42.541ZM30.037,18.027Z" transform="translate(229.952 14.918)" fill="#ffd24f"/>
      <g id="Group_812" data-name="Group 812">
        <path id="Path_37" data-name="Path 37" d="M1.128,42.541a1.084,1.084,0,0,1-.41-.081,1.068,1.068,0,0,1-.586-.579,1.08,1.08,0,0,1,.325-1.263c.257-.212.517-.4.783-.583.6-.412,1.215-.764,1.809-1.1q.274-.157.549-.316A119.7,119.7,0,0,0,16.55,29.68l-.016-.021.406-.3L17,29.3l.461-.387.022.026a21.51,21.51,0,0,0,1.986-1.767c1.622-1.482,3.531-3.2,5.548-4.9.9-.753,1.821-1.505,2.746-2.234a8.622,8.622,0,0,0,2.1-2.051l-1.306-.267a.6.6,0,0,1-.593-.63,1.838,1.838,0,0,1,.709-1.235,3.6,3.6,0,0,0,.252-.258,3.551,3.551,0,0,0,.671-1.63c.071-.3.143-.6.243-.9a6.186,6.186,0,0,1,5.55-3.98,8.569,8.569,0,0,1,6.318,2.592,14.769,14.769,0,0,1,3.471,5.79c1.494,4.19,1.558,8.3.18,11.571-1.427,3.387-4.313,5.835-6.669,7.59-2.4,1.788-5.626,3.88-9.292,4.18a21.933,21.933,0,0,1-6.445-.745c-.9-.2-1.838-.4-2.752-.544A31.352,31.352,0,0,0,6.459,40.77c-1,.287-2.053.627-3.309,1.069-.451.16-.9.337-1.347.515l-.273.108A1.026,1.026,0,0,1,1.128,42.541Zm.088-.99,0,0Zm-.135-.207,0,0Zm16.6-11.04A119.247,119.247,0,0,1,4.2,39.656q-.277.161-.556.32c-.585.335-1.138.651-1.681,1.02.259-.1.521-.2.783-.292,1.281-.45,2.354-.8,3.379-1.091a32.522,32.522,0,0,1,14.264-1.275c.946.149,1.9.356,2.818.556a20.734,20.734,0,0,0,6.091.721c3.361-.275,6.4-2.253,8.672-3.946,2.233-1.663,4.964-3.972,6.278-7.092,1.261-2.993,1.189-6.793-.2-10.7a13.6,13.6,0,0,0-3.177-5.332,7.37,7.37,0,0,0-5.414-2.252,4.962,4.962,0,0,0-4.47,3.157c-.083.251-.147.518-.215.8a4.551,4.551,0,0,1-.941,2.149c-.078.092-.181.195-.287.3l.735.15a1.056,1.056,0,0,1,.3.112,1.076,1.076,0,0,1,.427,1.46,8.969,8.969,0,0,1-2.5,2.568c-.916.722-1.83,1.465-2.717,2.21-2,1.682-3.9,3.394-5.489,4.847a22.518,22.518,0,0,1-2.571,2.223ZM30.037,18.027h0Z" transform="translate(229.952 14.918)" fill="#534741"/>
        <path id="Path_38" data-name="Path 38" d="M98.444,56.776,97.8,55.761l.508-.323c3.11-1.977,5.679-6.269,5.61-9.37a5.235,5.235,0,0,0-2.2-4.567l-.5-.328.655-1.009.5.328a6.4,6.4,0,0,1,2.745,5.55c.078,3.529-2.689,8.2-6.167,10.412Z" transform="translate(169.049 -4.438)" fill="#534741"/>
        <path id="Path_39" data-name="Path 39" d="M22.431,57.061l-.047-1.2.6-.024c6.609-.26,14.452-1.052,22.516-4.961.9-.44,1.781-.9,2.611-1.358a3.824,3.824,0,0,0,1.74-2.472,3.572,3.572,0,0,0-.226-2c-.037-.075-.073-.164-.109-.255-.023-.06-.046-.12-.071-.168a3.077,3.077,0,0,0-.508-.71l-.026-.028a2.577,2.577,0,0,1-.295-.278.58.58,0,0,1-.052-.066,4.623,4.623,0,0,0-3.14-1.105h-.07a5.567,5.567,0,0,0-1.785.379l-.021.011a14.972,14.972,0,0,0-1.423.863l-.481.449a8.707,8.707,0,0,0-1.268,1.712l-.3.524-1.048-.592.3-.524A9.94,9.94,0,0,1,40.8,43.28l.537-.5a.685.685,0,0,1,.068-.055A16.172,16.172,0,0,1,43,41.755l.059-.03.048-.021a6.806,6.806,0,0,1,2.226-.472h.078A5.822,5.822,0,0,1,49.4,42.666l.034.031a1.025,1.025,0,0,1,.11.132,1.417,1.417,0,0,0,.157.139c.015.011.03.024.044.036a.87.87,0,0,1,.1.106,4.279,4.279,0,0,1,.682.966c.042.083.08.177.117.272.024.061.047.122.072.17.007.013.013.027.019.04a4.788,4.788,0,0,1,.306,2.713,5.052,5.052,0,0,1-2.317,3.284q-1.3.724-2.689,1.4c-8.264,4.006-16.262,4.817-22.995,5.081Z" transform="translate(216.042 -5.102)" fill="#534741"/>
        <path id="Path_40" data-name="Path 40" d="M90.363,17.462c0-.106-.091-.192-.151-.275a2.565,2.565,0,0,0-.219-.234,2.91,2.91,0,0,0-.5-.377,2.468,2.468,0,0,0-1.132-.4,2.029,2.029,0,0,0-1.886.887,2.345,2.345,0,0,0-.3,1.022v.283a.724.724,0,0,1-.287.558.7.7,0,0,1-.3.136h-.072a.858.858,0,0,0-.377.174.651.651,0,0,0-.185.272.723.723,0,0,0,0,.355c.019.136.079.207.079.2s0,0,.026,0h.272c.845.053,1.732.06,2.6.087s1.754.053,2.641.1h.407l.072-.019a1.079,1.079,0,0,0,.377-.26,1.626,1.626,0,0,0,.317-.426.875.875,0,0,0,.079-.23,1.516,1.516,0,0,0,.023-.268,1.565,1.565,0,0,0-.377-1.056A1.982,1.982,0,0,0,90.363,17.462Zm0,0a1.912,1.912,0,0,1,1.324.313,1.934,1.934,0,0,1,.754,1.249,1.664,1.664,0,0,1,.026.377,1.51,1.51,0,0,1-.072.411,2.342,2.342,0,0,1-.377.694,1.787,1.787,0,0,1-.638.543,1.122,1.122,0,0,1-.241.091,2.367,2.367,0,0,1-.241.034l-.336.023c-1.773.1-3.508.132-5.308.072a1.388,1.388,0,0,1-.377-.038,1.233,1.233,0,0,1-.577-.241,1.476,1.476,0,0,1-.513-.947,2.272,2.272,0,0,1-.023-.453,2,2,0,0,1,.03-.241,1.324,1.324,0,0,1,.072-.249,1.638,1.638,0,0,1,.585-.777,1.948,1.948,0,0,1,.837-.347h.091a.414.414,0,0,0-.155.072.377.377,0,0,0-.14.275l.038-.377a2.981,2.981,0,0,1,.577-1.433,2.507,2.507,0,0,1,1.279-.887,2.905,2.905,0,0,1,1.483-.041,2.72,2.72,0,0,1,1.23.717,3.237,3.237,0,0,1,.434.536,2.864,2.864,0,0,1,.162.3A.524.524,0,0,1,90.363,17.462Z" transform="translate(177.793 10.917)" fill="#534741"/>
      </g>
    </g>
  </g>
</svg>
