<svg xmlns="http://www.w3.org/2000/svg" viewBox="0 0 170 34" width="170" height="34"><style>.a{fill:#ffd24f}.b{fill:#282625}</style><path d="m66.7 19.8q-0.7 0.2-1.5 0.4-0.7 0.2-1.4 0.4-0.8 0.1-1.5 0.2-0.8 0-1.6 0-0.9 0.1-1.9 0-1-0.2-1.9-0.5-1-0.3-1.8-0.9-0.9-0.5-1.6-1.1-0.7-0.7-1.2-1.6-0.5-0.8-0.9-1.8-0.3-0.9-0.5-1.9-0.1-0.9-0.1-1.9c0-5.8 4-10 10.5-10q0.6-0.1 1.2 0 0.6 0 1.3 0.2 0.6 0.1 1.2 0.2 0.5 0.2 1.1 0.5l-0.6 2q-0.5-0.2-1-0.4-0.5-0.2-1.1-0.3-0.5-0.1-1.1-0.1-0.5-0.1-1.1 0c-4.7 0-7.8 2.9-7.8 7.7 0 5 3 7.9 7.5 7.9q0.4 0 0.9 0 0.4-0.1 0.8-0.1 0.4-0.1 0.8-0.2 0.5-0.1 0.9-0.2v-5.8h-4v-2h6.4z"></path><path d="m83.2 13.6c0 5.1-3.6 7.4-7 7.4-3.7 0-6.6-2.8-6.6-7.2 0-4.7 3-7.4 6.9-7.4 4 0 6.7 2.9 6.7 7.2zm-11.1 0.1c0 3.1 1.8 5.4 4.2 5.4 2.5 0 4.3-2.3 4.3-5.4 0-2.4-1.2-5.4-4.2-5.4-3 0-4.3 2.8-4.3 5.4z"></path><path d="m86.4 0.2h2.5v20.4h-2.5z"></path><path d="m105.2 0.2v16.8c0 1.3 0 2.7 0.1 3.6h-2.3l-0.1-2.4h-0.1q-0.3 0.7-0.8 1.2-0.5 0.5-1.2 0.9-0.6 0.3-1.3 0.5-0.7 0.2-1.4 0.1c-3.4 0-6-2.8-6-7 0-4.6 2.9-7.5 6.3-7.5q0.6 0 1.2 0.1 0.6 0.1 1.2 0.4 0.5 0.3 1 0.7 0.4 0.4 0.8 0.9v-8.3zm-2.5 12.2q0-0.2 0-0.3 0-0.1 0-0.3 0-0.1-0.1-0.2 0-0.1 0-0.3-0.2-0.6-0.5-1.1-0.3-0.6-0.8-1-0.5-0.4-1.1-0.6-0.6-0.2-1.3-0.2c-2.6 0-4.1 2.3-4.1 5.4 0 2.8 1.3 5.1 4.1 5.1q0.6 0 1.2-0.2 0.7-0.2 1.2-0.6 0.5-0.5 0.8-1 0.3-0.6 0.5-1.2 0-0.1 0-0.3 0.1-0.1 0.1-0.3 0-0.1 0-0.2 0-0.2 0-0.3z"></path><path d="m109.4 1.3h10.5v2.1h-8v6.4h7.4v2.1h-7.4v8.7h-2.5z"></path><path d="m125.4 2.8c0 0.4-0.1 0.8-0.4 1.1-0.3 0.3-0.7 0.5-1.1 0.5-0.5 0-0.9-0.2-1.2-0.5-0.3-0.3-0.4-0.7-0.4-1.1q0-0.3 0.1-0.6 0.1-0.3 0.3-0.5 0.3-0.2 0.6-0.4 0.2-0.1 0.6-0.1 0.3 0 0.6 0.1 0.3 0.2 0.5 0.4 0.2 0.2 0.3 0.5 0.1 0.3 0.1 0.6zm-2.8 17.8v-13.9h2.5v13.9z"></path><path d="m129.3 10.5c0-1.5 0-2.6-0.1-3.8h2.3l0.1 2.3h0.1q0.3-0.6 0.8-1.1 0.5-0.5 1.1-0.8 0.6-0.4 1.3-0.5 0.7-0.2 1.4-0.2c1.9 0 4.9 1.2 4.9 5.9v8.3h-2.6v-8c0-2.2-0.8-4.1-3.2-4.1q-0.6 0-1.1 0.2-0.5 0.2-1 0.5-0.5 0.4-0.8 0.9-0.3 0.4-0.5 1 0 0.1-0.1 0.3 0 0.1 0 0.3 0 0.1 0 0.3 0 0.1 0 0.3v8.3h-2.6z"></path><path d="m155.2 20.1q-0.5 0.2-1 0.4-0.5 0.1-1 0.2-0.5 0.1-1 0.2-0.5 0-1 0c-4.2 0-6.9-2.8-6.9-7.1-0.1-1 0.1-2 0.4-2.9 0.4-0.9 1-1.7 1.7-2.4 0.7-0.7 1.5-1.3 2.4-1.6 1-0.4 2-0.5 2.9-0.5q0.5 0 0.9 0.1 0.5 0 0.9 0.1 0.5 0.1 0.9 0.2 0.4 0.2 0.9 0.4l-0.6 1.9q-0.4-0.2-0.7-0.3-0.4-0.1-0.7-0.2-0.4-0.1-0.8-0.1-0.4-0.1-0.8-0.1c-3.1 0-4.9 2.4-4.9 5.3 0 3.2 2.1 5.2 4.9 5.2q0.4 0 0.8 0 0.4-0.1 0.7-0.2 0.4-0.1 0.8-0.2 0.4-0.1 0.8-0.3z"></path><path d="m158.2 0.2h2.5v8.7q0.2-0.3 0.4-0.5 0.2-0.3 0.4-0.5 0.3-0.2 0.5-0.4 0.3-0.2 0.6-0.4 0.2-0.1 0.6-0.3 0.3-0.1 0.6-0.2 0.3-0.1 0.7-0.1 0.3-0.1 0.6-0.1c1.9 0 4.9 1.2 4.9 6v8.2h-2.5v-8c0-2.2-0.9-4.1-3.2-4.1q-0.6 0-1.2 0.2-0.5 0.2-1 0.5-0.4 0.4-0.7 0.8-0.4 0.5-0.5 1-0.1 0.2-0.1 0.3-0.1 0.2-0.1 0.3 0 0.2 0 0.3 0 0.2 0 0.3v8.4h-2.5z"></path><path d="m58.3 32.6q-0.3 0.1-0.6 0.2-0.4 0.1-0.7 0.2-0.3 0-0.7 0-0.3 0.1-0.7 0.1-1 0-1.9-0.4-1-0.3-1.7-1-0.7-0.8-1-1.7-0.4-1-0.3-2-0.1-1.1 0.3-2.1 0.4-1 1.1-1.7 0.8-0.8 1.8-1.2 1-0.3 2-0.3 0.3 0 0.6 0 0.3 0 0.6 0.1 0.3 0.1 0.6 0.1 0.3 0.1 0.6 0.3l-0.3 1q-0.2-0.1-0.5-0.2-0.2-0.1-0.5-0.1-0.2-0.1-0.5-0.1-0.3 0-0.5 0c-2.4 0-3.9 1.5-3.9 4.1 0 2.5 1.4 4.1 3.8 4.1q0.3 0 0.6-0.1 0.2 0 0.5 0 0.3-0.1 0.5-0.2 0.3 0 0.5-0.1z"></path><path d="m59.9 22.9h1.3v8.9h4.3v1.1h-5.6z"></path><path d="m74.9 27.8c0 3.4-2.1 5.3-4.6 5.3-2.7 0-4.5-2.1-4.5-5.1 0-3.2 1.9-5.3 4.6-5.3 2.8 0 4.5 2.1 4.5 5.1zm-7.7 0.2c0 2.1 1.1 4 3.2 4 2 0 3.2-1.9 3.2-4.2 0-1.9-1.1-4-3.2-4-2.2 0-3.3 1.9-3.2 4.2z"></path><path d="m77.9 22.9v5.9c0 2.3 1 3.2 2.3 3.2 1.5 0 2.5-1 2.5-3.2v-5.9h1.3v5.8c0 3.1-1.6 4.4-3.8 4.4-2.1 0-3.6-1.2-3.6-4.3v-5.9z"></path><path d="m86.2 23q0.4 0 0.7-0.1 0.4 0 0.7 0 0.4-0.1 0.7-0.1 0.3 0 0.7 0 0.5 0 1.1 0 0.5 0.1 1 0.2 0.6 0.2 1 0.5 0.5 0.2 1 0.6 0.3 0.3 0.6 0.7 0.3 0.4 0.5 0.9 0.1 0.5 0.2 1 0.1 0.5 0.1 1 0 0.5-0.1 1-0.1 0.5-0.3 1.1-0.1 0.5-0.4 0.9-0.3 0.5-0.7 0.9-0.4 0.3-1 0.6-0.5 0.3-1 0.5-0.6 0.2-1.2 0.3-0.6 0-1.2 0-0.3 0-0.6 0-0.3 0-0.6 0-0.3 0-0.6-0.1-0.3 0-0.6 0zm1.3 8.8q0.2 0.1 0.4 0.1 0.1 0 0.3 0 0.2 0 0.3 0 0.2 0 0.4 0c2.7 0 4.2-1.5 4.2-4.2 0-2.4-1.3-3.9-4-3.9q-0.2 0-0.4 0-0.2 0-0.4 0-0.2 0-0.4 0.1-0.2 0-0.4 0z"></path><path d="m99.1 31.3q0.3 0.2 0.6 0.3 0.3 0.1 0.5 0.2 0.3 0.1 0.6 0.1 0.3 0.1 0.7 0.1c1.3 0 2.1-0.7 2.1-1.7 0-1-0.6-1.5-1.9-2-1.7-0.6-2.7-1.5-2.7-2.9 0-1.5 1.3-2.7 3.3-2.7q0.2 0 0.5 0 0.3 0.1 0.6 0.1 0.3 0.1 0.5 0.2 0.3 0.1 0.6 0.2l-0.4 1.1q-0.2-0.2-0.4-0.2-0.3-0.1-0.5-0.2-0.2-0.1-0.5-0.1-0.2 0-0.5 0c-1.4 0-1.9 0.8-1.9 1.5 0 0.9 0.6 1.4 2 1.9 1.7 0.7 2.6 1.5 2.6 3 0 1.5-1.2 2.9-3.5 2.9q-0.4 0-0.7-0.1-0.3 0-0.7-0.1-0.3-0.1-0.6-0.2-0.3-0.1-0.6-0.3z"></path><path d="m115.2 27.8c0 3.4-2.1 5.3-4.6 5.3-2.7 0-4.5-2.1-4.5-5.1 0-3.2 1.9-5.3 4.6-5.3 2.7 0 4.5 2.1 4.5 5.1zm-7.8 0.2c0 2.1 1.2 4 3.2 4 2.1 0 3.3-1.9 3.3-4.2 0-1.9-1.1-4-3.3-4-2.1 0-3.2 1.9-3.2 4.2z"></path><path d="m116.9 22.9h1.3v8.9h4.3v1.1h-5.6z"></path><path d="m124.7 22.9v5.9c0 2.3 1 3.2 2.3 3.2 1.5 0 2.5-1 2.5-3.2v-5.9h1.3v5.8c0 3.1-1.7 4.4-3.8 4.4-2.1 0-3.6-1.2-3.6-4.3v-5.9z"></path><path d="m134.9 24h-3v-1.1h7.4v1.1h-3.1v8.9h-1.3z"></path><path d="m141.7 22.9v10h-1.3v-10z"></path><path d="m152.5 27.8c0 3.4-2.1 5.3-4.6 5.3-2.7 0-4.5-2.1-4.5-5.1 0-3.2 1.9-5.3 4.6-5.3 2.8 0 4.5 2.1 4.5 5.1zm-7.7 0.2c0 2.1 1.1 4 3.2 4 2 0 3.2-1.9 3.2-4.2 0-1.9-1.1-4-3.2-4-2.2 0-3.2 1.9-3.2 4.2z"></path><path d="m154.2 32.9v-10h1.4l3.3 5.1q0.2 0.3 0.4 0.7 0.3 0.4 0.5 0.9 0.2 0.4 0.4 0.8 0.3 0.4 0.5 0.8c-0.1-1.3-0.2-2.6-0.2-4.1v-4.2h1.3v10h-1.4l-3.1-5.1q-0.3-0.4-0.5-0.8-0.3-0.4-0.5-0.8-0.3-0.4-0.5-0.9-0.2-0.4-0.4-0.8h-0.1c0.1 1.2 0.1 2.5 0.1 4.1v4.3z"></path><path d="m163.8 31.3q0.3 0.2 0.6 0.3 0.3 0.1 0.6 0.2 0.2 0.1 0.5 0.1 0.3 0.1 0.7 0.1c1.3 0 2.1-0.7 2.1-1.7 0-1-0.6-1.5-1.9-2-1.7-0.6-2.7-1.5-2.7-2.9 0-1.5 1.3-2.7 3.3-2.7q0.2 0 0.5 0 0.3 0.1 0.6 0.1 0.3 0.1 0.6 0.2 0.2 0.1 0.5 0.2l-0.4 1.1q-0.2-0.2-0.4-0.2-0.3-0.1-0.5-0.2-0.2-0.1-0.5-0.1-0.2 0-0.5 0c-1.3 0-1.9 0.8-1.9 1.5 0 0.9 0.6 1.4 2 1.9 1.7 0.7 2.6 1.5 2.6 3 0 1.5-1.2 2.9-3.5 2.9q-0.4 0-0.7-0.1-0.3 0-0.6-0.1-0.4-0.1-0.7-0.2-0.3-0.1-0.6-0.3z"></path><path class="a" d="m1.1 33.5q-0.1 0-0.1 0-0.1-0.1-0.1-0.1-0.1 0-0.1 0-0.1 0-0.1 0-0.1-0.1-0.2-0.1-0.1-0.1-0.2-0.2-0.1 0-0.1-0.1-0.1-0.1-0.1-0.2-0.1-0.2-0.1-0.3 0-0.2 0-0.4 0.1-0.2 0.2-0.3 0.1-0.2 0.2-0.3 0.4-0.3 0.8-0.5 0.9-0.7 1.8-1.1 0.3-0.2 0.6-0.4 1.6-1 3.3-2 1.7-1.1 3.3-2.2 1.6-1.1 3.2-2.3 1.6-1.2 3.1-2.4l0.4-0.3 0.1-0.1 0.4-0.4v0.1q0.3-0.2 0.6-0.5 0.2-0.2 0.5-0.4 0.2-0.2 0.4-0.4 0.3-0.3 0.5-0.5c1.6-1.5 3.6-3.2 5.6-4.9q1.3-1.1 2.7-2.2 0.3-0.3 0.6-0.5 0.3-0.2 0.6-0.5 0.2-0.2 0.5-0.5 0.2-0.3 0.4-0.6l-1.3-0.3q-0.1 0-0.2 0-0.1-0.1-0.2-0.2-0.1 0-0.1-0.2-0.1-0.1-0.1-0.2 0-0.2 0.1-0.3 0.1-0.2 0.1-0.4 0.1-0.1 0.3-0.3 0.1-0.1 0.2-0.2 0.1-0.1 0.1-0.1 0 0 0.1-0.1 0-0.1 0.1-0.1 0.1-0.2 0.2-0.4 0.1-0.2 0.2-0.4 0.1-0.2 0.2-0.4 0-0.2 0-0.4 0.1-0.5 0.3-0.9 0.3-0.9 0.9-1.6 0.5-0.7 1.3-1.2 0.7-0.6 1.6-0.9 0.8-0.3 1.7-0.3 0.9 0 1.8 0.1 0.9 0.2 1.7 0.5 0.8 0.4 1.5 0.9 0.7 0.5 1.4 1.1 0.6 0.6 1.1 1.3 0.5 0.7 0.9 1.4 0.5 0.7 0.8 1.5 0.4 0.8 0.6 1.6c1.5 4.2 1.6 8.3 0.2 11.6-1.4 3.3-4.3 5.8-6.7 7.5-2.4 1.8-5.6 3.9-9.3 4.2q-0.8 0.1-1.6 0-0.8 0-1.6-0.1-0.8-0.1-1.6-0.3-0.8-0.1-1.6-0.3-1.4-0.3-2.7-0.6-1.8-0.2-3.5-0.2-1.8-0.1-3.5 0.1-1.7 0.2-3.4 0.5-1.7 0.4-3.4 0.9c-1 0.3-2 0.6-3.3 1.1q-0.7 0.2-1.3 0.5l-0.3 0.1q-0.1 0-0.1 0-0.1 0-0.1 0-0.1 0-0.1 0.1-0.1 0-0.1 0z"></path><path class="b" d="m1.1 33.5q-0.1 0-0.1 0-0.1-0.1-0.1-0.1-0.1 0-0.1 0-0.1 0-0.1 0-0.1-0.1-0.2-0.1-0.1-0.1-0.2-0.2-0.1 0-0.1-0.1-0.1-0.1-0.1-0.2-0.1-0.2-0.1-0.3 0-0.2 0-0.4 0.1-0.2 0.2-0.3 0.1-0.2 0.2-0.3 0.4-0.3 0.8-0.5 0.9-0.7 1.8-1.1 0.3-0.2 0.6-0.4 1.6-1 3.3-2 1.7-1.1 3.3-2.2 1.6-1.1 3.2-2.3 1.6-1.2 3.1-2.4l0.4-0.3 0.1-0.1 0.4-0.4v0.1q0.3-0.2 0.6-0.5 0.2-0.2 0.5-0.4 0.2-0.2 0.4-0.4 0.3-0.3 0.5-0.5c1.6-1.5 3.6-3.2 5.6-4.9q1.3-1.1 2.7-2.2 0.3-0.3 0.6-0.5 0.3-0.2 0.6-0.5 0.2-0.2 0.5-0.5 0.2-0.3 0.4-0.6l-1.3-0.3q-0.1 0-0.2 0-0.1-0.1-0.2-0.2-0.1 0-0.1-0.2-0.1-0.1-0.1-0.2 0-0.2 0.1-0.3 0.1-0.2 0.1-0.4 0.1-0.1 0.3-0.3 0.1-0.1 0.2-0.2 0.1-0.1 0.1-0.1 0 0 0.1-0.1 0-0.1 0.1-0.1 0.1-0.2 0.2-0.4 0.1-0.2 0.2-0.4 0.1-0.2 0.2-0.4 0-0.2 0-0.4 0.1-0.5 0.3-0.9 0.3-0.9 0.9-1.6 0.5-0.7 1.3-1.2 0.7-0.6 1.6-0.9 0.8-0.3 1.7-0.3 0.9 0 1.8 0.1 0.9 0.2 1.7 0.5 0.8 0.4 1.5 0.9 0.7 0.5 1.4 1.1 0.6 0.6 1.1 1.3 0.5 0.7 0.9 1.4 0.5 0.7 0.8 1.5 0.4 0.8 0.6 1.6c1.5 4.2 1.6 8.3 0.2 11.6-1.4 3.3-4.3 5.8-6.7 7.5-2.4 1.8-5.6 3.9-9.3 4.2q-0.8 0.1-1.6 0-0.8 0-1.6-0.1-0.8-0.1-1.6-0.3-0.8-0.1-1.6-0.3-1.4-0.3-2.7-0.6-1.8-0.2-3.5-0.2-1.8-0.1-3.5 0.1-1.7 0.2-3.4 0.5-1.7 0.4-3.4 0.9c-1 0.3-2 0.6-3.3 1.1q-0.7 0.2-1.3 0.5l-0.3 0.1q-0.1 0-0.1 0-0.1 0-0.1 0-0.1 0-0.1 0.1-0.1 0-0.1 0zm16.5-12.3q-1.6 1.3-3.2 2.5-1.7 1.3-3.3 2.4-1.7 1.2-3.5 2.3-1.7 1.1-3.4 2.2-0.3 0.1-0.6 0.3c-0.6 0.3-1.1 0.6-1.7 1q0.4-0.1 0.8-0.3c1.3-0.4 2.4-0.8 3.4-1.1q1.7-0.5 3.5-0.9 1.7-0.3 3.5-0.5 1.8-0.2 3.6-0.1 1.9 0 3.6 0.3c1 0.1 1.9 0.3 2.9 0.5q0.7 0.2 1.5 0.4 0.7 0.1 1.5 0.2 0.7 0.1 1.5 0.1 0.8 0.1 1.6 0c3.3-0.2 6.4-2.2 8.6-3.9 2.3-1.7 5-4 6.3-7.1 1.3-3 1.2-6.8-0.2-10.7q-0.2-0.8-0.6-1.5-0.3-0.7-0.7-1.4-0.4-0.6-0.9-1.3-0.4-0.6-1-1.1-0.5-0.6-1.1-1-0.7-0.4-1.4-0.7-0.6-0.3-1.4-0.5-0.7-0.1-1.5-0.1-0.7 0-1.4 0.3-0.7 0.2-1.3 0.6-0.6 0.4-1 1-0.5 0.6-0.8 1.3-0.1 0.3-0.2 0.8 0 0.3-0.1 0.5-0.1 0.3-0.2 0.6-0.1 0.3-0.3 0.5-0.1 0.3-0.3 0.5-0.1 0.2-0.3 0.3l0.7 0.2q0.1 0 0.1 0 0 0 0.1 0 0 0 0.1 0 0 0.1 0 0.1 0.2 0.1 0.4 0.2 0.1 0.2 0.1 0.4 0.1 0.2 0.1 0.4 0 0.3-0.1 0.4-0.3 0.4-0.6 0.8-0.2 0.3-0.6 0.6-0.3 0.4-0.6 0.7-0.4 0.3-0.7 0.5-1.4 1.1-2.8 2.2c-2 1.7-3.9 3.4-5.4 4.9q-0.3 0.3-0.7 0.6-0.3 0.2-0.6 0.5-0.3 0.3-0.6 0.6-0.4 0.2-0.7 0.5z"></path><path class="b" d="m37.5 28.3l-0.7-1 0.6-0.3c3.1-2 5.6-6.3 5.6-9.4q0-0.6-0.1-1.3-0.2-0.6-0.4-1.2-0.3-0.6-0.8-1.1-0.4-0.6-0.9-0.9l-0.5-0.4 0.6-1 0.5 0.4q0.7 0.4 1.2 1 0.5 0.6 0.9 1.4 0.4 0.7 0.5 1.5 0.2 0.8 0.2 1.6c0 3.5-2.7 8.2-6.2 10.4z"></path><path class="b" d="m8.5 28l-0.1-1.2 0.6-0.1c6.6-0.2 14.5-1 22.5-4.9q1.4-0.7 2.7-1.4 0.3-0.2 0.6-0.5 0.3-0.2 0.5-0.5 0.2-0.4 0.4-0.7 0.1-0.4 0.2-0.8 0-0.2 0-0.5 0.1-0.2 0-0.5 0-0.2-0.1-0.5 0-0.2-0.1-0.5-0.1-0.1-0.1-0.2-0.1-0.1-0.1-0.2-0.1-0.1-0.1-0.2-0.1-0.1-0.1-0.2-0.1 0-0.2-0.1 0-0.1-0.1-0.2-0.1 0-0.1-0.1-0.1 0-0.1-0.1 0 0-0.1 0 0-0.1 0-0.1 0 0-0.1 0 0-0.1 0-0.1-0.3-0.2-0.7-0.5-0.4-0.2-0.8-0.3-0.4-0.1-0.8-0.2-0.4-0.1-0.8-0.1h-0.1q-0.2 0-0.5 0.1-0.2 0-0.4 0-0.2 0.1-0.5 0.2-0.2 0-0.4 0.1-0.2 0.1-0.4 0.2-0.2 0.1-0.3 0.2-0.2 0.1-0.4 0.3-0.2 0.1-0.3 0.2l-0.5 0.4q-0.2 0.2-0.4 0.4-0.1 0.2-0.3 0.5-0.2 0.2-0.3 0.4-0.2 0.2-0.3 0.4l-0.3 0.6-1-0.6 0.3-0.5q0.1-0.3 0.3-0.6 0.2-0.2 0.3-0.5 0.2-0.2 0.4-0.5 0.2-0.2 0.4-0.4l0.6-0.5q0 0 0-0.1 0.2-0.1 0.4-0.2 0.2-0.2 0.4-0.3 0.2-0.1 0.4-0.2 0.2-0.1 0.4-0.2l0.1-0.1q0.3-0.1 0.6-0.2 0.3-0.1 0.5-0.1 0.3-0.1 0.6-0.1 0.3-0.1 0.6-0.1h0.1q0.5 0 1 0.1 0.6 0.1 1.1 0.3 0.5 0.2 1 0.4 0.4 0.3 0.8 0.7h0.1q0 0 0 0.1 0 0 0.1 0 0 0 0 0.1 0 0 0.1 0 0 0.1 0 0.1 0.1 0 0.1 0 0 0 0 0.1 0.1 0 0.1 0 0.1 0.1 0.2 0.2 0.1 0.1 0.2 0.3 0 0.1 0.1 0.2 0.1 0.1 0.2 0.3 0 0.1 0.1 0.2 0 0.1 0.1 0.2 0 0 0 0.1 0.1 0.3 0.2 0.6 0.1 0.3 0.1 0.7 0.1 0.3 0.1 0.7-0.1 0.3-0.1 0.7-0.1 0.5-0.3 1-0.2 0.4-0.5 0.9-0.3 0.4-0.7 0.7-0.4 0.4-0.8 0.7-1.3 0.7-2.7 1.4c-8.3 4-16.3 4.8-23 5z"></path><path class="b" d="m38.2 4.4q0.1 0 0.3 0 0.2 0 0.3 0 0.2 0.1 0.4 0.1 0.1 0.1 0.3 0.2 0.1 0.1 0.3 0.2 0.1 0.2 0.2 0.3 0.1 0.2 0.1 0.4 0.1 0.2 0.1 0.3 0 0.1 0 0.1 0.1 0.1 0.1 0.1 0 0.1 0 0.1 0 0.1 0 0.1 0 0.1 0 0.1-0.1 0.1-0.1 0.1 0 0.1 0 0.1 0 0.1 0 0.1 0 0.1-0.1 0.2 0 0.1-0.1 0.2 0 0.1-0.1 0.2 0 0-0.1 0.1-0.1 0.1-0.1 0.2-0.1 0.1-0.2 0.1-0.1 0.1-0.1 0.2-0.1 0-0.2 0.1-0.1 0-0.1 0-0.1 0-0.1 0 0 0-0.1 0.1-0.1 0-0.1 0-0.1 0-0.1 0h-0.3c-1.8 0.1-3.6 0.1-5.4 0.1q-0.1 0-0.1 0-0.1 0-0.1 0-0.1 0-0.1-0.1-0.1 0-0.2 0-0.1 0-0.1 0-0.1-0.1-0.2-0.1 0 0-0.1-0.1-0.1-0.1-0.2-0.2-0.1-0.1-0.2-0.2 0-0.1-0.1-0.3 0-0.1 0-0.2 0-0.1 0-0.2 0 0 0-0.1 0 0 0-0.1 0 0 0-0.1 0 0 0-0.1 0 0 0-0.1 0-0.1 0-0.1 0 0 0-0.1 0-0.1 0.1-0.1 0-0.1 0.1-0.2 0-0.1 0.1-0.2 0.1-0.1 0.2-0.2 0-0.1 0.1-0.2 0.1 0 0.2-0.1 0.1 0 0.2-0.1 0.1 0 0.3-0.1 0.1 0 0.2 0h0.1q0 0-0.1 0-0.1 0.1-0.1 0.1-0.1 0.1-0.1 0.1 0 0 0 0.1v-0.3q0-0.2 0.1-0.4 0-0.2 0.1-0.4 0.1-0.2 0.2-0.3 0.1-0.2 0.2-0.4 0.1-0.1 0.3-0.3 0.1-0.1 0.3-0.2 0.1-0.1 0.3-0.2 0.2-0.1 0.4-0.2 0.2 0 0.3 0 0.2-0.1 0.4-0.1 0.2 0 0.4 0 0.2 0.1 0.4 0.1 0.1 0 0.3 0.1 0.2 0.1 0.3 0.2 0.2 0.1 0.3 0.2 0.2 0.1 0.3 0.2 0 0.1 0.1 0.1 0.1 0.1 0.1 0.2 0.1 0 0.1 0.1 0.1 0.1 0.1 0.2 0 0 0.1 0 0 0.1 0 0.1 0 0 0 0.1 0.1 0 0.1 0.1 0 0.1 0 0.1 0.1 0.1 0.1 0.1 0 0 0 0.1zm0 0c0-0.1-0.1-0.2-0.2-0.3q0 0 0-0.1-0.1 0-0.1 0 0 0-0.1-0.1-0.1-0.1-0.1-0.1-0.1-0.1-0.2-0.1 0-0.1-0.1-0.1 0-0.1-0.1-0.1-0.1-0.1-0.3-0.2-0.1 0-0.3-0.1-0.1 0-0.2-0.1-0.2 0-0.3 0-0.3 0-0.6 0-0.3 0.1-0.5 0.2-0.3 0.1-0.5 0.3-0.2 0.2-0.3 0.4-0.1 0.1-0.2 0.2 0 0.1 0 0.3-0.1 0.1-0.1 0.2 0 0.2 0 0.3v0.3q0 0.1-0.1 0.1 0 0.1 0 0.2 0 0.1-0.1 0.1-0.1 0.1-0.1 0.1-0.1 0.1-0.1 0.1 0 0-0.1 0 0 0 0 0.1-0.1 0-0.1 0h-0.1q0 0-0.1 0 0 0-0.1 0 0 0.1-0.1 0.1 0 0-0.1 0.1-0.1 0-0.1 0.1 0 0.1-0.1 0.1 0 0.1 0 0.1 0 0.1 0 0.1 0 0 0 0.1 0 0 0 0.1c0.1 0.1 0.1 0.2 0.1 0.2q0 0 0.1 0h0.2c0.9 0 1.8 0 2.6 0.1q1.3 0 2.7 0.1h0.4v-0.1q0.1 0 0.1 0 0.1 0 0.1-0.1 0.1 0 0.1 0 0.1-0.1 0.1-0.1 0.1-0.1 0.1-0.1 0.1-0.1 0.1-0.1 0-0.1 0.1-0.1 0-0.1 0-0.1 0.1-0.1 0.1-0.1 0 0 0-0.1 0 0 0-0.1 0-0.1 0-0.1 0 0 0-0.1 0-0.2 0-0.3 0-0.2-0.1-0.3 0-0.1-0.1-0.3 0-0.1-0.1-0.2-0.2-0.1-0.3-0.2-0.1-0.1-0.2-0.1-0.2-0.1-0.3-0.2-0.2 0-0.3 0z"></path></svg>